<mxfile host="Electron" modified="2024-01-04T16:15:24.453Z" agent="Mozilla/5.0 (X11; Linux x86_64) AppleWebKit/537.36 (KHTML, like Gecko) draw.io/22.1.16 Chrome/120.0.6099.109 Electron/28.1.0 Safari/537.36" etag="cdGnk6vp9BjdXJtuXQCo" version="22.1.16" type="device">
  <diagram name="Page-1" id="03018318-947c-dd8e-b7a3-06fadd420f32">
    <mxGraphModel dx="1687" dy="92" grid="1" gridSize="2" guides="1" tooltips="1" connect="1" arrows="1" fold="1" page="1" pageScale="1" pageWidth="1600" pageHeight="900" background="none" math="0" shadow="0">
      <root>
        <mxCell id="0" />
        <mxCell id="1" parent="0" />
        <mxCell id="ROv4KZfR7c8mRnaVcZ-b-264" value="" style="group" vertex="1" connectable="0" parent="1">
          <mxGeometry x="34" y="926" width="1538" height="834" as="geometry" />
        </mxCell>
        <mxCell id="ROv4KZfR7c8mRnaVcZ-b-132" value="" style="rounded=0;whiteSpace=wrap;html=1;sketch=1;curveFitting=1;jiggle=2;fillColor=none;container=0;" vertex="1" parent="ROv4KZfR7c8mRnaVcZ-b-264">
          <mxGeometry width="1536" height="832" as="geometry" />
        </mxCell>
        <mxCell id="ROv4KZfR7c8mRnaVcZ-b-135" value="GTT" style="rounded=0;whiteSpace=wrap;html=1;fontSize=15;sketch=1;curveFitting=1;jiggle=2;container=0;" vertex="1" parent="ROv4KZfR7c8mRnaVcZ-b-264">
          <mxGeometry width="1536" height="36" as="geometry" />
        </mxCell>
        <mxCell id="ROv4KZfR7c8mRnaVcZ-b-140" value="" style="line;strokeWidth=1;direction=south;html=1;sketch=1;hachureGap=4;jiggle=2;curveFitting=1;fontFamily=Architects Daughter;fontSource=https%3A%2F%2Ffonts.googleapis.com%2Fcss%3Ffamily%3DArchitects%2BDaughter;fontSize=20;opacity=40;container=0;" vertex="1" parent="ROv4KZfR7c8mRnaVcZ-b-264">
          <mxGeometry x="412" y="128" width="10" height="666" as="geometry" />
        </mxCell>
        <mxCell id="ROv4KZfR7c8mRnaVcZ-b-167" value="&amp;lt;" style="rounded=0;whiteSpace=wrap;html=1;sketch=1;hachureGap=4;jiggle=2;curveFitting=1;fontFamily=Architects Daughter;fontSource=https%3A%2F%2Ffonts.googleapis.com%2Fcss%3Ffamily%3DArchitects%2BDaughter;fontSize=37;fillColor=none;strokeColor=none;fontStyle=1;container=0;" vertex="1" parent="ROv4KZfR7c8mRnaVcZ-b-264">
          <mxGeometry x="12" y="43" width="40" height="62" as="geometry" />
        </mxCell>
        <mxCell id="ROv4KZfR7c8mRnaVcZ-b-168" value="&amp;gt;" style="rounded=0;whiteSpace=wrap;html=1;sketch=1;hachureGap=4;jiggle=2;curveFitting=1;fontFamily=Architects Daughter;fontSource=https%3A%2F%2Ffonts.googleapis.com%2Fcss%3Ffamily%3DArchitects%2BDaughter;fontSize=37;fillColor=none;strokeColor=none;fontStyle=1;container=0;" vertex="1" parent="ROv4KZfR7c8mRnaVcZ-b-264">
          <mxGeometry x="1478" y="43" width="40" height="62" as="geometry" />
        </mxCell>
        <mxCell id="ROv4KZfR7c8mRnaVcZ-b-21" value="" style="rounded=0;whiteSpace=wrap;html=1;gradientColor=none;shadow=1;glass=0;sketch=1;curveFitting=1;jiggle=2;container=0;" vertex="1" parent="ROv4KZfR7c8mRnaVcZ-b-264">
          <mxGeometry x="36" y="210" width="330" height="150" as="geometry" />
        </mxCell>
        <mxCell id="ROv4KZfR7c8mRnaVcZ-b-22" value="Relational Database" style="text;html=1;strokeColor=none;fillColor=none;align=center;verticalAlign=middle;whiteSpace=wrap;rounded=0;strokeWidth=1;fontSize=16;fontStyle=1;shadow=0;sketch=1;curveFitting=1;jiggle=2;container=0;" vertex="1" parent="ROv4KZfR7c8mRnaVcZ-b-264">
          <mxGeometry x="46" y="219" width="310" height="14" as="geometry" />
        </mxCell>
        <mxCell id="ROv4KZfR7c8mRnaVcZ-b-23" value="" style="verticalLabelPosition=bottom;shadow=0;align=center;html=1;verticalAlign=top;strokeWidth=1;shape=mxgraph.mockup.markup.line;strokeColor=#000000;fontSize=15;fontStyle=0;fillColor=none;perimeterSpacing=0;sketch=1;curveFitting=1;jiggle=2;container=0;" vertex="1" parent="ROv4KZfR7c8mRnaVcZ-b-264">
          <mxGeometry x="46" y="233" width="310" height="20" as="geometry" />
        </mxCell>
        <mxCell id="ROv4KZfR7c8mRnaVcZ-b-24" value="I aim to learn about relational db and sql language as some..." style="text;html=1;strokeColor=none;fillColor=none;align=left;verticalAlign=middle;whiteSpace=wrap;rounded=0;fontStyle=0;fontSize=11;shadow=0;sketch=1;curveFitting=1;jiggle=2;container=0;" vertex="1" parent="ROv4KZfR7c8mRnaVcZ-b-264">
          <mxGeometry x="46" y="253" width="310" height="14" as="geometry" />
        </mxCell>
        <mxCell id="ROv4KZfR7c8mRnaVcZ-b-70" value="3/6" style="verticalLabelPosition=middle;verticalAlign=middle;html=1;shape=mxgraph.basic.partConcEllipse;startAngle=0;endAngle=0.75;arcWidth=0.2;strokeColor=#666666;fillColor=#f5f5f5;fontSize=8;fontColor=#333333;align=center;fontStyle=1;whiteSpace=wrap;sketch=1;curveFitting=1;jiggle=2;container=0;" vertex="1" parent="ROv4KZfR7c8mRnaVcZ-b-264">
          <mxGeometry x="66" y="280" width="40" height="40" as="geometry" />
        </mxCell>
        <mxCell id="ROv4KZfR7c8mRnaVcZ-b-71" value="Targets" style="text;html=1;strokeColor=none;fillColor=none;align=center;verticalAlign=middle;whiteSpace=wrap;rounded=0;fontColor=#666666;fontSize=7;fontStyle=1;sketch=1;curveFitting=1;jiggle=2;container=0;" vertex="1" parent="ROv4KZfR7c8mRnaVcZ-b-264">
          <mxGeometry x="66" y="320" width="40" height="20" as="geometry" />
        </mxCell>
        <mxCell id="ROv4KZfR7c8mRnaVcZ-b-41" value="60%" style="verticalLabelPosition=middle;verticalAlign=middle;html=1;shape=mxgraph.basic.partConcEllipse;startAngle=0;endAngle=0.65;arcWidth=0.2;strokeColor=#666666;fillColor=#f5f5f5;fontSize=8;fontColor=#333333;align=center;fontStyle=1;whiteSpace=wrap;sketch=1;curveFitting=1;jiggle=2;container=0;" vertex="1" parent="ROv4KZfR7c8mRnaVcZ-b-264">
          <mxGeometry x="136" y="280" width="40" height="40" as="geometry" />
        </mxCell>
        <mxCell id="ROv4KZfR7c8mRnaVcZ-b-57" value="avg progress" style="text;html=1;strokeColor=none;fillColor=none;align=center;verticalAlign=middle;whiteSpace=wrap;rounded=0;fontColor=#666666;fontSize=7;fontStyle=1;sketch=1;curveFitting=1;jiggle=2;container=0;" vertex="1" parent="ROv4KZfR7c8mRnaVcZ-b-264">
          <mxGeometry x="136" y="320" width="40" height="20" as="geometry" />
        </mxCell>
        <mxCell id="ROv4KZfR7c8mRnaVcZ-b-82" value="39m" style="verticalLabelPosition=middle;verticalAlign=middle;html=1;shape=mxgraph.basic.partConcEllipse;startAngle=0;endAngle=0.75;arcWidth=0.2;strokeColor=#666666;fillColor=#f5f5f5;fontSize=8;fontColor=#333333;align=center;fontStyle=1;whiteSpace=wrap;sketch=1;curveFitting=1;jiggle=2;container=0;" vertex="1" parent="ROv4KZfR7c8mRnaVcZ-b-264">
          <mxGeometry x="206" y="280" width="40" height="40" as="geometry" />
        </mxCell>
        <mxCell id="ROv4KZfR7c8mRnaVcZ-b-83" value="1 day&lt;br style=&quot;border-color: var(--border-color);&quot;&gt;9 hours" style="text;html=1;strokeColor=none;fillColor=none;align=center;verticalAlign=middle;whiteSpace=wrap;rounded=0;fontColor=#666666;fontSize=7;fontStyle=1;sketch=1;curveFitting=1;jiggle=2;container=0;" vertex="1" parent="ROv4KZfR7c8mRnaVcZ-b-264">
          <mxGeometry x="206" y="320" width="40" height="20" as="geometry" />
        </mxCell>
        <mxCell id="ROv4KZfR7c8mRnaVcZ-b-150" value="Goals" style="text;html=1;strokeColor=none;fillColor=none;align=center;verticalAlign=middle;whiteSpace=wrap;rounded=0;fontSize=28;fontFamily=Architects Daughter;fontStyle=0;container=0;" vertex="1" parent="ROv4KZfR7c8mRnaVcZ-b-264">
          <mxGeometry x="124" y="128" width="164" height="40" as="geometry" />
        </mxCell>
        <mxCell id="ROv4KZfR7c8mRnaVcZ-b-151" value="" style="verticalLabelPosition=bottom;shadow=0;dashed=0;align=center;html=1;verticalAlign=top;strokeWidth=1;shape=mxgraph.mockup.markup.line;strokeColor=#999999;sketch=1;hachureGap=4;jiggle=2;curveFitting=1;fontFamily=Architects Daughter;fontSource=https%3A%2F%2Ffonts.googleapis.com%2Fcss%3Ffamily%3DArchitects%2BDaughter;fontSize=20;container=0;" vertex="1" parent="ROv4KZfR7c8mRnaVcZ-b-264">
          <mxGeometry x="154.10126582278482" y="168" width="103.7974683544304" height="20" as="geometry" />
        </mxCell>
        <mxCell id="ROv4KZfR7c8mRnaVcZ-b-153" value="Goals" style="text;html=1;strokeColor=none;fillColor=none;align=center;verticalAlign=middle;whiteSpace=wrap;rounded=0;fontSize=28;fontFamily=Architects Daughter;fontStyle=0;container=0;" vertex="1" parent="ROv4KZfR7c8mRnaVcZ-b-264">
          <mxGeometry x="126" y="130" width="164" height="40" as="geometry" />
        </mxCell>
        <mxCell id="ROv4KZfR7c8mRnaVcZ-b-154" value="" style="verticalLabelPosition=bottom;shadow=0;dashed=0;align=center;html=1;verticalAlign=top;strokeWidth=1;shape=mxgraph.mockup.markup.line;strokeColor=#999999;sketch=1;hachureGap=4;jiggle=2;curveFitting=1;fontFamily=Architects Daughter;fontSource=https%3A%2F%2Ffonts.googleapis.com%2Fcss%3Ffamily%3DArchitects%2BDaughter;fontSize=20;container=0;" vertex="1" parent="ROv4KZfR7c8mRnaVcZ-b-264">
          <mxGeometry x="156.10126582278482" y="170" width="103.7974683544304" height="20" as="geometry" />
        </mxCell>
        <mxCell id="ROv4KZfR7c8mRnaVcZ-b-146" value="Journy: Dev Career" style="text;html=1;strokeColor=none;fillColor=none;align=center;verticalAlign=middle;whiteSpace=wrap;rounded=0;fontSize=28;fontFamily=Architects Daughter;fontStyle=0;container=0;" vertex="1" parent="ROv4KZfR7c8mRnaVcZ-b-264">
          <mxGeometry x="614" y="42" width="298" height="40" as="geometry" />
        </mxCell>
        <mxCell id="ROv4KZfR7c8mRnaVcZ-b-147" value="" style="verticalLabelPosition=bottom;shadow=0;dashed=0;align=center;html=1;verticalAlign=top;strokeWidth=1;shape=mxgraph.mockup.markup.line;strokeColor=#999999;sketch=1;hachureGap=4;jiggle=2;curveFitting=1;fontFamily=Architects Daughter;fontSource=https%3A%2F%2Ffonts.googleapis.com%2Fcss%3Ffamily%3DArchitects%2BDaughter;fontSize=20;container=0;" vertex="1" parent="ROv4KZfR7c8mRnaVcZ-b-264">
          <mxGeometry x="668.6962025316456" y="82" width="188.6075949367089" height="20" as="geometry" />
        </mxCell>
        <mxCell id="ROv4KZfR7c8mRnaVcZ-b-157" value="Journy: Dev Career" style="text;html=1;strokeColor=none;fillColor=none;align=center;verticalAlign=middle;whiteSpace=wrap;rounded=0;fontSize=28;fontFamily=Architects Daughter;fontStyle=0;container=0;" vertex="1" parent="ROv4KZfR7c8mRnaVcZ-b-264">
          <mxGeometry x="616" y="44" width="298" height="40" as="geometry" />
        </mxCell>
        <mxCell id="ROv4KZfR7c8mRnaVcZ-b-158" value="" style="verticalLabelPosition=bottom;shadow=0;dashed=0;align=center;html=1;verticalAlign=top;strokeWidth=1;shape=mxgraph.mockup.markup.line;strokeColor=#999999;sketch=1;hachureGap=4;jiggle=2;curveFitting=1;fontFamily=Architects Daughter;fontSource=https%3A%2F%2Ffonts.googleapis.com%2Fcss%3Ffamily%3DArchitects%2BDaughter;fontSize=20;container=0;" vertex="1" parent="ROv4KZfR7c8mRnaVcZ-b-264">
          <mxGeometry x="670.6962025316456" y="84" width="188.6075949367089" height="20" as="geometry" />
        </mxCell>
        <mxCell id="ROv4KZfR7c8mRnaVcZ-b-160" value="Journy: Dev Career" style="text;html=1;strokeColor=none;fillColor=none;align=center;verticalAlign=middle;whiteSpace=wrap;rounded=0;fontSize=28;fontFamily=Architects Daughter;fontStyle=0;container=0;" vertex="1" parent="ROv4KZfR7c8mRnaVcZ-b-264">
          <mxGeometry x="618" y="46" width="298" height="40" as="geometry" />
        </mxCell>
        <mxCell id="ROv4KZfR7c8mRnaVcZ-b-161" value="" style="verticalLabelPosition=bottom;shadow=0;dashed=0;align=center;html=1;verticalAlign=top;strokeWidth=1;shape=mxgraph.mockup.markup.line;strokeColor=#999999;sketch=1;hachureGap=4;jiggle=2;curveFitting=1;fontFamily=Architects Daughter;fontSource=https%3A%2F%2Ffonts.googleapis.com%2Fcss%3Ffamily%3DArchitects%2BDaughter;fontSize=20;container=0;" vertex="1" parent="ROv4KZfR7c8mRnaVcZ-b-264">
          <mxGeometry x="672.6962025316456" y="86" width="188.6075949367089" height="20" as="geometry" />
        </mxCell>
        <mxCell id="ROv4KZfR7c8mRnaVcZ-b-171" value="" style="rounded=0;whiteSpace=wrap;html=1;sketch=1;curveFitting=1;jiggle=2;fillColor=none;container=0;" vertex="1" parent="ROv4KZfR7c8mRnaVcZ-b-264">
          <mxGeometry x="2" y="2" width="1536" height="832" as="geometry" />
        </mxCell>
        <mxCell id="ROv4KZfR7c8mRnaVcZ-b-172" value="GTT" style="rounded=0;whiteSpace=wrap;html=1;fontSize=15;sketch=1;curveFitting=1;jiggle=2;container=0;" vertex="1" parent="ROv4KZfR7c8mRnaVcZ-b-264">
          <mxGeometry x="2" y="2" width="1536" height="36" as="geometry" />
        </mxCell>
        <mxCell id="ROv4KZfR7c8mRnaVcZ-b-187" value="" style="line;strokeWidth=1;direction=south;html=1;sketch=1;hachureGap=4;jiggle=2;curveFitting=1;fontFamily=Architects Daughter;fontSource=https%3A%2F%2Ffonts.googleapis.com%2Fcss%3Ffamily%3DArchitects%2BDaughter;fontSize=20;opacity=40;container=0;" vertex="1" parent="ROv4KZfR7c8mRnaVcZ-b-264">
          <mxGeometry x="414" y="130" width="10" height="666" as="geometry" />
        </mxCell>
        <mxCell id="ROv4KZfR7c8mRnaVcZ-b-205" value="&amp;lt;" style="rounded=0;whiteSpace=wrap;html=1;sketch=1;hachureGap=4;jiggle=2;curveFitting=1;fontFamily=Architects Daughter;fontSource=https%3A%2F%2Ffonts.googleapis.com%2Fcss%3Ffamily%3DArchitects%2BDaughter;fontSize=37;fillColor=none;strokeColor=none;fontStyle=1;container=0;" vertex="1" parent="ROv4KZfR7c8mRnaVcZ-b-264">
          <mxGeometry x="14" y="45" width="40" height="62" as="geometry" />
        </mxCell>
        <mxCell id="ROv4KZfR7c8mRnaVcZ-b-206" value="&amp;gt;" style="rounded=0;whiteSpace=wrap;html=1;sketch=1;hachureGap=4;jiggle=2;curveFitting=1;fontFamily=Architects Daughter;fontSource=https%3A%2F%2Ffonts.googleapis.com%2Fcss%3Ffamily%3DArchitects%2BDaughter;fontSize=37;fillColor=none;strokeColor=none;fontStyle=1;container=0;" vertex="1" parent="ROv4KZfR7c8mRnaVcZ-b-264">
          <mxGeometry x="1480" y="45" width="40" height="62" as="geometry" />
        </mxCell>
        <mxCell id="ROv4KZfR7c8mRnaVcZ-b-174" value="" style="rounded=0;whiteSpace=wrap;html=1;gradientColor=none;shadow=1;glass=0;sketch=1;curveFitting=1;jiggle=2;container=0;" vertex="1" parent="ROv4KZfR7c8mRnaVcZ-b-264">
          <mxGeometry x="34" y="400" width="330" height="150" as="geometry" />
        </mxCell>
        <mxCell id="ROv4KZfR7c8mRnaVcZ-b-175" value="Learn Python in advance" style="text;html=1;strokeColor=none;fillColor=none;align=center;verticalAlign=middle;whiteSpace=wrap;rounded=0;strokeWidth=1;fontSize=16;fontStyle=1;shadow=0;sketch=1;curveFitting=1;jiggle=2;container=0;" vertex="1" parent="ROv4KZfR7c8mRnaVcZ-b-264">
          <mxGeometry x="44" y="409" width="310" height="14" as="geometry" />
        </mxCell>
        <mxCell id="ROv4KZfR7c8mRnaVcZ-b-176" value="" style="verticalLabelPosition=bottom;shadow=0;align=center;html=1;verticalAlign=top;strokeWidth=1;shape=mxgraph.mockup.markup.line;strokeColor=#000000;fontSize=15;fontStyle=0;fillColor=none;perimeterSpacing=0;sketch=1;curveFitting=1;jiggle=2;container=0;" vertex="1" parent="ROv4KZfR7c8mRnaVcZ-b-264">
          <mxGeometry x="44" y="423" width="310" height="20" as="geometry" />
        </mxCell>
        <mxCell id="ROv4KZfR7c8mRnaVcZ-b-177" value="I aim to learn about relational db and sql language as some..." style="text;html=1;strokeColor=none;fillColor=none;align=left;verticalAlign=middle;whiteSpace=wrap;rounded=0;fontStyle=0;fontSize=11;shadow=0;sketch=1;curveFitting=1;jiggle=2;container=0;" vertex="1" parent="ROv4KZfR7c8mRnaVcZ-b-264">
          <mxGeometry x="44" y="443" width="310" height="14" as="geometry" />
        </mxCell>
        <mxCell id="ROv4KZfR7c8mRnaVcZ-b-263" value="" style="sketch=0;outlineConnect=0;fillColor=#e1d5e7;strokeColor=#9673a6;dashed=0;verticalLabelPosition=bottom;verticalAlign=top;align=center;html=1;fontSize=12;fontStyle=0;aspect=fixed;pointerEvents=1;shape=mxgraph.aws4.container_registry_image;hachureGap=4;jiggle=2;curveFitting=1;fontFamily=Architects Daughter;fontSource=https%3A%2F%2Ffonts.googleapis.com%2Fcss%3Ffamily%3DArchitects%2BDaughter;container=0;" vertex="1" parent="ROv4KZfR7c8mRnaVcZ-b-264">
          <mxGeometry x="334" y="408" width="22" height="22" as="geometry" />
        </mxCell>
        <mxCell id="ROv4KZfR7c8mRnaVcZ-b-179" value="3/6" style="verticalLabelPosition=middle;verticalAlign=middle;html=1;shape=mxgraph.basic.partConcEllipse;startAngle=0;endAngle=0.75;arcWidth=0.2;strokeColor=#666666;fillColor=#f5f5f5;fontSize=8;fontColor=#333333;align=center;fontStyle=1;whiteSpace=wrap;sketch=1;curveFitting=1;jiggle=2;container=0;" vertex="1" parent="ROv4KZfR7c8mRnaVcZ-b-264">
          <mxGeometry x="64" y="470" width="40" height="40" as="geometry" />
        </mxCell>
        <mxCell id="ROv4KZfR7c8mRnaVcZ-b-180" value="Targets" style="text;html=1;strokeColor=none;fillColor=none;align=center;verticalAlign=middle;whiteSpace=wrap;rounded=0;fontColor=#666666;fontSize=7;fontStyle=1;sketch=1;curveFitting=1;jiggle=2;container=0;" vertex="1" parent="ROv4KZfR7c8mRnaVcZ-b-264">
          <mxGeometry x="64" y="510" width="40" height="20" as="geometry" />
        </mxCell>
        <mxCell id="ROv4KZfR7c8mRnaVcZ-b-182" value="60%" style="verticalLabelPosition=middle;verticalAlign=middle;html=1;shape=mxgraph.basic.partConcEllipse;startAngle=0;endAngle=0.65;arcWidth=0.2;strokeColor=#666666;fillColor=#f5f5f5;fontSize=8;fontColor=#333333;align=center;fontStyle=1;whiteSpace=wrap;sketch=1;curveFitting=1;jiggle=2;container=0;" vertex="1" parent="ROv4KZfR7c8mRnaVcZ-b-264">
          <mxGeometry x="134" y="470" width="40" height="40" as="geometry" />
        </mxCell>
        <mxCell id="ROv4KZfR7c8mRnaVcZ-b-183" value="avg progress" style="text;html=1;strokeColor=none;fillColor=none;align=center;verticalAlign=middle;whiteSpace=wrap;rounded=0;fontColor=#666666;fontSize=7;fontStyle=1;sketch=1;curveFitting=1;jiggle=2;container=0;" vertex="1" parent="ROv4KZfR7c8mRnaVcZ-b-264">
          <mxGeometry x="134" y="510" width="40" height="20" as="geometry" />
        </mxCell>
        <mxCell id="ROv4KZfR7c8mRnaVcZ-b-185" value="39m" style="verticalLabelPosition=middle;verticalAlign=middle;html=1;shape=mxgraph.basic.partConcEllipse;startAngle=0;endAngle=0.75;arcWidth=0.2;strokeColor=#666666;fillColor=#f5f5f5;fontSize=8;fontColor=#333333;align=center;fontStyle=1;whiteSpace=wrap;sketch=1;curveFitting=1;jiggle=2;container=0;" vertex="1" parent="ROv4KZfR7c8mRnaVcZ-b-264">
          <mxGeometry x="204" y="470" width="40" height="40" as="geometry" />
        </mxCell>
        <mxCell id="ROv4KZfR7c8mRnaVcZ-b-186" value="1 day&lt;br style=&quot;border-color: var(--border-color);&quot;&gt;9 hours" style="text;html=1;strokeColor=none;fillColor=none;align=center;verticalAlign=middle;whiteSpace=wrap;rounded=0;fontColor=#666666;fontSize=7;fontStyle=1;sketch=1;curveFitting=1;jiggle=2;container=0;" vertex="1" parent="ROv4KZfR7c8mRnaVcZ-b-264">
          <mxGeometry x="204" y="510" width="40" height="20" as="geometry" />
        </mxCell>
        <mxCell id="ROv4KZfR7c8mRnaVcZ-b-190" value="Goals" style="text;html=1;strokeColor=none;fillColor=none;align=center;verticalAlign=middle;whiteSpace=wrap;rounded=0;fontSize=28;fontFamily=Architects Daughter;fontStyle=0;container=0;" vertex="1" parent="ROv4KZfR7c8mRnaVcZ-b-264">
          <mxGeometry x="126" y="130" width="164" height="40" as="geometry" />
        </mxCell>
        <mxCell id="ROv4KZfR7c8mRnaVcZ-b-191" value="" style="verticalLabelPosition=bottom;shadow=0;dashed=0;align=center;html=1;verticalAlign=top;strokeWidth=1;shape=mxgraph.mockup.markup.line;strokeColor=#999999;sketch=1;hachureGap=4;jiggle=2;curveFitting=1;fontFamily=Architects Daughter;fontSource=https%3A%2F%2Ffonts.googleapis.com%2Fcss%3Ffamily%3DArchitects%2BDaughter;fontSize=20;container=0;" vertex="1" parent="ROv4KZfR7c8mRnaVcZ-b-264">
          <mxGeometry x="156.10126582278482" y="170" width="103.7974683544304" height="20" as="geometry" />
        </mxCell>
        <mxCell id="ROv4KZfR7c8mRnaVcZ-b-193" value="Goals" style="text;html=1;strokeColor=none;fillColor=none;align=center;verticalAlign=middle;whiteSpace=wrap;rounded=0;fontSize=28;fontFamily=Architects Daughter;fontStyle=0;container=0;" vertex="1" parent="ROv4KZfR7c8mRnaVcZ-b-264">
          <mxGeometry x="128" y="132" width="164" height="40" as="geometry" />
        </mxCell>
        <mxCell id="ROv4KZfR7c8mRnaVcZ-b-194" value="" style="verticalLabelPosition=bottom;shadow=0;dashed=0;align=center;html=1;verticalAlign=top;strokeWidth=1;shape=mxgraph.mockup.markup.line;strokeColor=#999999;sketch=1;hachureGap=4;jiggle=2;curveFitting=1;fontFamily=Architects Daughter;fontSource=https%3A%2F%2Ffonts.googleapis.com%2Fcss%3Ffamily%3DArchitects%2BDaughter;fontSize=20;container=0;" vertex="1" parent="ROv4KZfR7c8mRnaVcZ-b-264">
          <mxGeometry x="158.10126582278482" y="172" width="103.7974683544304" height="20" as="geometry" />
        </mxCell>
        <mxCell id="ROv4KZfR7c8mRnaVcZ-b-197" value="Journy: Dev Career" style="text;html=1;strokeColor=none;fillColor=none;align=center;verticalAlign=middle;whiteSpace=wrap;rounded=0;fontSize=28;fontFamily=Architects Daughter;fontStyle=0;container=0;" vertex="1" parent="ROv4KZfR7c8mRnaVcZ-b-264">
          <mxGeometry x="616" y="44" width="298" height="40" as="geometry" />
        </mxCell>
        <mxCell id="ROv4KZfR7c8mRnaVcZ-b-198" value="" style="verticalLabelPosition=bottom;shadow=0;dashed=0;align=center;html=1;verticalAlign=top;strokeWidth=1;shape=mxgraph.mockup.markup.line;strokeColor=#999999;sketch=1;hachureGap=4;jiggle=2;curveFitting=1;fontFamily=Architects Daughter;fontSource=https%3A%2F%2Ffonts.googleapis.com%2Fcss%3Ffamily%3DArchitects%2BDaughter;fontSize=20;container=0;" vertex="1" parent="ROv4KZfR7c8mRnaVcZ-b-264">
          <mxGeometry x="670.6962025316456" y="84" width="188.6075949367089" height="20" as="geometry" />
        </mxCell>
        <mxCell id="ROv4KZfR7c8mRnaVcZ-b-200" value="Journy: Dev Career" style="text;html=1;strokeColor=none;fillColor=none;align=center;verticalAlign=middle;whiteSpace=wrap;rounded=0;fontSize=28;fontFamily=Architects Daughter;fontStyle=0;container=0;" vertex="1" parent="ROv4KZfR7c8mRnaVcZ-b-264">
          <mxGeometry x="618" y="46" width="298" height="40" as="geometry" />
        </mxCell>
        <mxCell id="ROv4KZfR7c8mRnaVcZ-b-201" value="" style="verticalLabelPosition=bottom;shadow=0;dashed=0;align=center;html=1;verticalAlign=top;strokeWidth=1;shape=mxgraph.mockup.markup.line;strokeColor=#999999;sketch=1;hachureGap=4;jiggle=2;curveFitting=1;fontFamily=Architects Daughter;fontSource=https%3A%2F%2Ffonts.googleapis.com%2Fcss%3Ffamily%3DArchitects%2BDaughter;fontSize=20;container=0;" vertex="1" parent="ROv4KZfR7c8mRnaVcZ-b-264">
          <mxGeometry x="672.6962025316456" y="86" width="188.6075949367089" height="20" as="geometry" />
        </mxCell>
        <mxCell id="ROv4KZfR7c8mRnaVcZ-b-203" value="Journy: Dev Career" style="text;html=1;strokeColor=none;fillColor=none;align=center;verticalAlign=middle;whiteSpace=wrap;rounded=0;fontSize=28;fontFamily=Architects Daughter;fontStyle=0;container=0;" vertex="1" parent="ROv4KZfR7c8mRnaVcZ-b-264">
          <mxGeometry x="620" y="48" width="298" height="40" as="geometry" />
        </mxCell>
        <mxCell id="ROv4KZfR7c8mRnaVcZ-b-204" value="" style="verticalLabelPosition=bottom;shadow=0;dashed=0;align=center;html=1;verticalAlign=top;strokeWidth=1;shape=mxgraph.mockup.markup.line;strokeColor=#999999;sketch=1;hachureGap=4;jiggle=2;curveFitting=1;fontFamily=Architects Daughter;fontSource=https%3A%2F%2Ffonts.googleapis.com%2Fcss%3Ffamily%3DArchitects%2BDaughter;fontSize=20;container=0;" vertex="1" parent="ROv4KZfR7c8mRnaVcZ-b-264">
          <mxGeometry x="674.6962025316456" y="88" width="188.6075949367089" height="20" as="geometry" />
        </mxCell>
        <mxCell id="ROv4KZfR7c8mRnaVcZ-b-246" value="" style="rounded=0;whiteSpace=wrap;html=1;gradientColor=none;shadow=1;glass=0;sketch=1;curveFitting=1;jiggle=2;container=0;" vertex="1" parent="ROv4KZfR7c8mRnaVcZ-b-264">
          <mxGeometry x="32" y="594" width="330" height="150" as="geometry" />
        </mxCell>
        <mxCell id="ROv4KZfR7c8mRnaVcZ-b-247" value="Learn Django" style="text;html=1;strokeColor=none;fillColor=none;align=center;verticalAlign=middle;whiteSpace=wrap;rounded=0;strokeWidth=1;fontSize=16;fontStyle=1;shadow=0;sketch=1;curveFitting=1;jiggle=2;container=0;" vertex="1" parent="ROv4KZfR7c8mRnaVcZ-b-264">
          <mxGeometry x="42" y="603" width="310" height="14" as="geometry" />
        </mxCell>
        <mxCell id="ROv4KZfR7c8mRnaVcZ-b-248" value="" style="verticalLabelPosition=bottom;shadow=0;align=center;html=1;verticalAlign=top;strokeWidth=1;shape=mxgraph.mockup.markup.line;strokeColor=#000000;fontSize=15;fontStyle=0;fillColor=none;perimeterSpacing=0;sketch=1;curveFitting=1;jiggle=2;container=0;" vertex="1" parent="ROv4KZfR7c8mRnaVcZ-b-264">
          <mxGeometry x="42" y="617" width="310" height="20" as="geometry" />
        </mxCell>
        <mxCell id="ROv4KZfR7c8mRnaVcZ-b-249" value="I aim to learn about relational db and sql language as some..." style="text;html=1;strokeColor=none;fillColor=none;align=left;verticalAlign=middle;whiteSpace=wrap;rounded=0;fontStyle=0;fontSize=11;shadow=0;sketch=1;curveFitting=1;jiggle=2;container=0;" vertex="1" parent="ROv4KZfR7c8mRnaVcZ-b-264">
          <mxGeometry x="42" y="637" width="310" height="14" as="geometry" />
        </mxCell>
        <mxCell id="ROv4KZfR7c8mRnaVcZ-b-251" value="3/6" style="verticalLabelPosition=middle;verticalAlign=middle;html=1;shape=mxgraph.basic.partConcEllipse;startAngle=0;endAngle=0.75;arcWidth=0.2;strokeColor=#666666;fillColor=#f5f5f5;fontSize=8;fontColor=#333333;align=center;fontStyle=1;whiteSpace=wrap;sketch=1;curveFitting=1;jiggle=2;container=0;" vertex="1" parent="ROv4KZfR7c8mRnaVcZ-b-264">
          <mxGeometry x="62" y="664" width="40" height="40" as="geometry" />
        </mxCell>
        <mxCell id="ROv4KZfR7c8mRnaVcZ-b-252" value="Targets" style="text;html=1;strokeColor=none;fillColor=none;align=center;verticalAlign=middle;whiteSpace=wrap;rounded=0;fontColor=#666666;fontSize=7;fontStyle=1;sketch=1;curveFitting=1;jiggle=2;container=0;" vertex="1" parent="ROv4KZfR7c8mRnaVcZ-b-264">
          <mxGeometry x="62" y="704" width="40" height="20" as="geometry" />
        </mxCell>
        <mxCell id="ROv4KZfR7c8mRnaVcZ-b-254" value="60%" style="verticalLabelPosition=middle;verticalAlign=middle;html=1;shape=mxgraph.basic.partConcEllipse;startAngle=0;endAngle=0.65;arcWidth=0.2;strokeColor=#666666;fillColor=#f5f5f5;fontSize=8;fontColor=#333333;align=center;fontStyle=1;whiteSpace=wrap;sketch=1;curveFitting=1;jiggle=2;container=0;" vertex="1" parent="ROv4KZfR7c8mRnaVcZ-b-264">
          <mxGeometry x="132" y="664" width="40" height="40" as="geometry" />
        </mxCell>
        <mxCell id="ROv4KZfR7c8mRnaVcZ-b-255" value="avg progress" style="text;html=1;strokeColor=none;fillColor=none;align=center;verticalAlign=middle;whiteSpace=wrap;rounded=0;fontColor=#666666;fontSize=7;fontStyle=1;sketch=1;curveFitting=1;jiggle=2;container=0;" vertex="1" parent="ROv4KZfR7c8mRnaVcZ-b-264">
          <mxGeometry x="132" y="704" width="40" height="20" as="geometry" />
        </mxCell>
        <mxCell id="ROv4KZfR7c8mRnaVcZ-b-257" value="39m" style="verticalLabelPosition=middle;verticalAlign=middle;html=1;shape=mxgraph.basic.partConcEllipse;startAngle=0;endAngle=0.75;arcWidth=0.2;strokeColor=#666666;fillColor=#f5f5f5;fontSize=8;fontColor=#333333;align=center;fontStyle=1;whiteSpace=wrap;sketch=1;curveFitting=1;jiggle=2;container=0;" vertex="1" parent="ROv4KZfR7c8mRnaVcZ-b-264">
          <mxGeometry x="202" y="664" width="40" height="40" as="geometry" />
        </mxCell>
        <mxCell id="ROv4KZfR7c8mRnaVcZ-b-258" value="1 day&lt;br style=&quot;border-color: var(--border-color);&quot;&gt;9 hours" style="text;html=1;strokeColor=none;fillColor=none;align=center;verticalAlign=middle;whiteSpace=wrap;rounded=0;fontColor=#666666;fontSize=7;fontStyle=1;sketch=1;curveFitting=1;jiggle=2;container=0;" vertex="1" parent="ROv4KZfR7c8mRnaVcZ-b-264">
          <mxGeometry x="202" y="704" width="40" height="20" as="geometry" />
        </mxCell>
      </root>
    </mxGraphModel>
  </diagram>
</mxfile>
